<svg width="1000" height="1000" viewBox="0 0 1000 1000" fill="none" xmlns="http://www.w3.org/2000/svg">
<path d="M437.908 881.395C437.908 915.633 465.763 943.486 499.999 943.486C534.236 943.486 562.09 915.631 562.09 881.395C562.09 847.158 534.236 819.304 499.999 819.304C465.763 819.304 437.908 847.156 437.908 881.395ZM524.353 881.395C524.353 894.823 513.428 905.748 499.999 905.748C486.571 905.748 475.646 894.823 475.646 881.395C475.646 867.966 486.571 857.041 499.999 857.041C513.428 857.041 524.353 867.966 524.353 881.395Z" fill="black"/>
<path d="M500.001 196.445C468.874 196.445 443.55 221.769 443.55 252.897C443.55 284.024 468.874 309.348 500.001 309.348C531.128 309.348 556.45 284.024 556.45 252.897C556.45 221.769 531.126 196.445 500.001 196.445ZM500.001 271.61C489.682 271.61 481.287 263.216 481.287 252.897C481.287 242.578 489.682 234.183 500.001 234.183C510.318 234.183 518.713 242.578 518.713 252.897C518.713 263.216 510.318 271.61 500.001 271.61Z" fill="black"/>
<path d="M678.588 0L321.412 0C310.99 0 302.543 8.44905 302.543 18.8688V408.298C302.543 418.72 310.99 427.167 321.412 427.167H401.472C411.894 427.167 420.341 418.72 420.341 408.298C420.341 386.696 433.373 368.089 451.982 359.898L441.367 749.388C440.808 768.846 425.121 784.088 405.655 784.088C395.233 784.088 386.786 792.535 386.786 802.957V886.785C386.786 949.211 437.575 999.998 500.001 999.998C562.428 999.998 613.214 949.209 613.214 886.785V802.957C613.214 792.535 604.767 784.088 594.345 784.088C574.879 784.088 559.193 768.846 558.633 749.388L548.018 359.898C566.627 368.089 579.659 386.696 579.659 408.298C579.659 418.72 588.106 427.167 598.528 427.167H678.588C689.01 427.167 697.457 418.72 697.457 408.298V18.8688C697.457 8.44905 689.01 0 678.588 0ZM659.719 37.7377V57.7156L340.281 57.7156V37.7377L659.719 37.7377ZM659.719 95.4532V118.637L340.281 118.637V95.4532L659.719 95.4532ZM575.476 819.423V886.785C575.476 928.403 541.617 962.26 499.999 962.26C458.381 962.26 424.524 928.401 424.524 886.785V819.421C455.378 811.368 478.124 783.952 479.088 750.445L489.854 355.436H510.146L520.912 750.445C520.912 750.453 520.912 750.464 520.912 750.474C521.874 783.956 544.622 811.37 575.476 819.423ZM615.422 389.43C606.719 348.497 570.288 317.699 526.799 317.699H473.203C429.713 317.699 393.283 348.495 384.58 389.43H340.283V156.374H659.724V389.43H615.422Z" fill="black"/>
</svg>
