<svg width="1000" height="1000" viewBox="0 0 1000 1000" fill="none" xmlns="http://www.w3.org/2000/svg">
<path d="M937.5 437.5H810.656C795.525 301.381 682.869 194.575 544.325 188.162C538.019 169.718 520.725 156.372 500.153 156.372H499.847C479.278 156.372 462.081 169.712 455.813 188.156C317.203 194.509 204.481 301.337 189.344 437.5H62.5C45.2281 437.5 31.25 451.493 31.25 468.75C31.25 486.006 45.2281 500 62.5 500H102.491L112.366 529.647C125.153 567.993 160.888 593.75 201.294 593.75H297.709L356.534 670.775C360.625 676.131 366.331 680.022 372.8 681.868C376.737 682.981 468.106 708.662 603.85 716.262L675.878 783.456L670.712 786.422C655.759 795.012 650.572 814.115 659.178 829.084C664.947 839.14 675.475 844.772 686.309 844.772C691.588 844.772 696.928 843.443 701.844 840.622L900.147 726.747C915.1 718.156 920.287 699.053 911.681 684.084C903.075 669.131 884.003 663.928 869.019 672.55L864.166 675.337C850.525 646.212 831.087 616.584 813.537 592.578C847.65 587.143 876.438 563.225 887.634 529.637L897.509 500.006H937.5C954.772 500.006 968.75 486.012 968.75 468.756C968.75 451.5 954.772 437.5 937.5 437.5ZM468.75 250H531.25C641.219 250 732.259 331.668 747.506 437.5H252.497C267.744 331.668 358.781 250 468.75 250ZM732.6 750.884L638.181 662.797C632.75 657.747 625.731 654.772 618.316 654.418C508.941 649.247 426.909 631.012 399.688 624.281L376.366 593.747H735.244C756.559 619.581 792.422 667.328 809.728 706.59L732.6 750.884ZM828.369 509.872C824.097 522.659 812.162 531.25 798.706 531.25H201.294C187.834 531.25 175.903 522.659 171.631 509.887L168.337 500H831.659L828.369 509.872Z" fill="black"/>
</svg>
