<svg width="1000" height="1000" viewBox="0 0 1000 1000" fill="none" xmlns="http://www.w3.org/2000/svg">
<path d="M562.368 61C413.887 90.3057 280.222 176.09 101.451 89.5421C103.786 98.3101 106.049 107.104 108.336 115.872H65.7597L62.3292 102.707H38L256.671 938.696H281L183.44 565.674H226.016C228.668 575.942 231.393 586.159 234.045 596.427C412.792 682.923 546.481 597.138 694.889 567.833C650.756 398.897 606.55 229.935 562.368 61ZM276.329 153.393C326.691 152.182 374.425 140.939 421.599 127.51C434.275 175.774 446.877 224.064 459.528 272.327C412.378 285.756 364.62 296.999 314.21 298.21C301.583 249.92 288.932 201.657 276.329 153.393ZM178.282 545.926L70.9418 135.62H113.518C149.331 272.38 185.07 409.166 220.859 545.926H178.282ZM212.514 420.909C200.154 373.725 187.771 326.568 175.485 279.384C225.262 299.158 271.609 305.846 315.937 304.766C328.272 351.95 340.631 399.108 352.942 446.292C308.663 447.371 262.291 440.684 212.514 420.909ZM540.423 581.709C493.273 595.164 445.539 606.38 395.129 607.565C382.502 559.275 369.875 511.012 357.224 462.748C407.561 461.537 455.319 450.294 502.542 436.866C515.169 485.182 527.82 533.419 540.423 581.709ZM622.85 385.205C580.785 395.079 539.79 408.613 498.26 420.409C485.901 373.225 473.542 326.068 461.256 278.884C502.761 267.061 543.853 253.554 585.821 243.68C598.132 290.864 610.491 338.021 622.85 385.205ZM603.095 143.256C605.431 152.024 607.693 160.818 609.98 169.586C629.127 166.479 648.518 164.452 668.322 163.978C680.973 212.241 693.551 260.531 706.202 308.795C686.423 309.269 667.008 311.296 647.91 314.403C662.288 369.249 676.642 424.122 690.997 478.968C710.095 475.861 729.534 473.833 749.29 473.359C761.965 521.623 774.568 569.913 787.243 618.176C736.882 619.361 689.123 630.631 641.9 644.006C638.956 632.632 635.988 621.362 633.044 610.014C583.948 623.943 535.533 640.294 485.415 650.168C490.694 670.337 495.974 690.427 501.204 710.543C649.637 681.237 783.35 595.453 962 681.948C917.867 513.013 873.612 344.051 829.43 175.089C746.224 134.883 672.847 131.908 603.095 143.256ZM885.46 482.285C835.683 462.511 789.36 455.823 745.032 456.903C732.673 409.719 720.313 362.561 708.027 315.377C752.306 314.298 798.702 320.986 848.431 340.76C860.742 387.944 873.125 435.101 885.46 482.285Z" fill="black"/>
</svg>
