<svg width="1000" height="1000" viewBox="0 0 1000 1000" fill="none" xmlns="http://www.w3.org/2000/svg">
<path d="M683.47 833.329H681.37C692.886 818.962 700.138 801.38 700.138 783.329C700.138 750.796 684.054 717.697 665.421 679.346C642.638 632.446 616.804 579.262 616.804 516.663C616.804 432.347 625.738 383.631 630.172 364.613C651.222 358.73 666.804 339.58 666.804 316.664C666.804 296.447 654.687 279.098 637.388 271.215L680.337 113.732C691.97 108.533 700.138 96.8822 700.138 83.3315C700.138 64.9488 685.189 49.9978 666.804 49.9978C648.421 49.9978 633.47 64.9469 633.47 83.3315C633.47 85.1479 633.72 86.8979 634.004 88.6479C594.338 92.4819 561.188 81.2476 527.405 52.4157C531.205 46.9997 533.471 40.4334 533.471 33.3318C533.471 14.9491 518.52 0 500.137 0C481.754 0 466.803 14.9491 466.803 33.3338C466.803 40.4334 469.071 46.9997 472.87 52.4177C439.087 81.2495 405.938 92.4819 366.271 88.6499C366.554 86.8999 366.804 85.1499 366.804 83.3335C366.804 64.9508 351.855 49.9997 333.47 49.9997C315.087 49.9997 300.136 64.9488 300.136 83.3335C300.136 96.8842 308.302 108.533 319.937 113.734L362.87 271.116C345.554 278.983 333.47 296.449 333.47 316.666C333.47 344.232 355.904 366.666 383.47 366.666H550.137C559.336 366.666 566.803 359.199 566.803 350C566.803 340.801 559.336 333.334 550.137 333.334H383.472C374.288 333.334 366.806 325.852 366.806 316.668C366.806 307.485 374.288 300.002 383.472 300.002C388.671 300.002 393.556 297.569 396.722 293.451C399.872 289.319 400.921 283.969 399.556 278.952L356.572 121.353C410.304 128.202 455.821 112.802 500.137 72.9703C544.471 112.786 589.986 128.238 643.703 121.353L604.07 266.668H450.137C440.938 266.668 433.471 274.135 433.471 283.334C433.471 292.533 440.938 300 450.137 300H616.802C625.986 300 633.468 307.483 633.468 316.666C633.468 325.85 625.986 333.332 616.802 333.332C616.57 333.332 616.402 333.449 616.17 333.465C614.937 333.516 613.802 333.865 612.619 334.182C611.685 334.416 610.736 334.549 609.869 334.949C608.851 335.416 608.035 336.115 607.136 336.783C606.32 337.383 605.437 337.883 604.736 338.633C604.037 339.365 603.603 340.283 603.037 341.15C602.404 342.117 601.736 343.051 601.32 344.15C601.236 344.367 601.07 344.518 600.986 344.734C600.269 346.867 583.469 398.65 583.469 516.667C583.469 586.95 612.285 646.25 635.451 693.916C652.267 728.548 666.8 758.466 666.8 783.331C666.8 807.632 641.101 833.331 616.8 833.331H450.137C440.938 833.331 433.471 840.798 433.471 849.997C433.471 859.196 440.938 866.663 450.137 866.663H683.47C707.771 866.663 733.47 892.362 733.47 916.663V966.662H266.805V916.663C266.805 892.362 292.504 866.663 316.804 866.663H383.47C392.669 866.663 400.136 859.196 400.136 849.997C400.136 840.798 392.669 833.331 383.47 833.331C359.169 833.331 333.47 807.632 333.47 783.331C333.47 758.464 348.003 728.548 364.82 693.916C387.985 646.25 416.802 586.95 416.802 516.667C416.802 494.751 414.052 460.351 408.651 414.435C407.567 405.285 399.302 398.652 390.134 399.836C381.001 400.92 374.468 409.203 375.534 418.353C380.718 462.335 383.468 496.335 383.468 516.669C383.468 579.268 357.634 632.451 334.851 679.351C316.218 717.701 300.134 750.8 300.134 783.335C300.134 801.368 307.318 818.985 318.818 833.335H316.8C273.967 833.335 233.467 873.835 233.467 916.668V983.334C233.467 992.533 240.934 1000 250.133 1000H750.13C759.329 1000 766.796 992.533 766.796 983.334V916.668C766.802 873.829 726.302 833.329 683.47 833.329Z" fill="black"/>
</svg>
