<svg width="1000" height="1000" viewBox="0 0 1000 1000" fill="none" xmlns="http://www.w3.org/2000/svg">
<path d="M728.926 0H271.074C224.853 0 187.252 37.6016 187.252 83.8203V916.18C187.252 962.398 224.853 1000 271.074 1000H728.93C775.148 1000 812.75 962.398 812.75 916.18V83.8203C812.75 37.6016 775.146 0 728.926 0ZM772.908 916.18C772.908 940.432 753.18 960.16 728.926 960.16H271.074C246.82 960.16 227.092 940.432 227.092 916.18V808.766H772.908V916.18ZM772.908 768.924H227.092V139.441H772.908V768.924ZM772.908 99.6016H227.092V83.8203C227.092 59.5684 246.82 39.8398 271.074 39.8398H728.93C753.182 39.8398 772.91 59.5684 772.91 83.8203L772.908 99.6016Z" fill="black"/>
<path d="M503.984 824.701H496.016C463.063 824.701 436.254 851.51 436.254 884.463C436.254 917.416 463.063 944.225 496.016 944.225H503.984C536.938 944.225 563.746 917.416 563.746 884.463C563.744 851.51 536.936 824.701 503.984 824.701ZM503.984 904.383H496.016C485.031 904.383 476.096 895.447 476.096 884.463C476.096 873.478 485.031 864.543 496.016 864.543H503.984C514.969 864.543 523.904 873.478 523.904 884.463C523.904 895.447 514.969 904.383 503.984 904.383Z" fill="black"/>
<path d="M445.77 264.939H348.605C337.603 264.939 328.686 273.859 328.686 284.859V382.023C328.686 393.023 337.603 401.943 348.605 401.943C359.607 401.943 368.525 393.023 368.525 382.023V304.781H445.768C456.77 304.781 465.688 295.861 465.688 284.861C465.689 273.861 456.771 264.939 445.77 264.939Z" fill="black"/>
<path d="M445.77 567.729H368.527V490.486C368.527 479.486 359.609 470.566 348.607 470.566C337.605 470.566 328.688 479.486 328.688 490.486V587.65C328.688 598.65 337.605 607.57 348.607 607.57H445.771C456.773 607.57 465.691 598.65 465.691 587.65C465.689 576.65 456.771 567.729 445.77 567.729Z" fill="black"/>
<path d="M651.395 264.939H554.23C543.229 264.939 534.311 273.859 534.311 284.859C534.311 295.859 543.229 304.779 554.23 304.779H631.473V382.021C631.473 393.021 640.391 401.941 651.393 401.941C662.395 401.941 671.313 393.021 671.313 382.021V284.857C671.314 273.861 662.397 264.939 651.395 264.939Z" fill="black"/>
<path d="M651.395 470.566C640.393 470.566 631.475 479.486 631.475 490.486V567.729H554.232C543.23 567.729 534.312 576.648 534.312 587.648C534.312 598.648 543.23 607.568 554.232 607.568H651.397C662.398 607.568 671.316 598.648 671.316 587.648V490.484C671.314 479.486 662.397 470.566 651.395 470.566Z" fill="black"/>
<path d="M573.705 713.146H559.762C548.76 713.146 539.842 722.066 539.842 733.066C539.842 744.066 548.76 752.986 559.762 752.986H573.705C584.707 752.986 593.625 744.066 593.625 733.066C593.625 722.066 584.707 713.146 573.705 713.146Z" fill="black"/>
<path d="M733.068 713.146H649.402C638.4 713.146 629.482 722.066 629.482 733.066C629.482 744.066 638.4 752.986 649.402 752.986H733.068C744.07 752.986 752.988 744.066 752.988 733.066C752.988 722.066 744.07 713.146 733.068 713.146Z" fill="black"/>
</svg>
