<svg width="1000" height="1000" viewBox="0 0 1000 1000" fill="none" xmlns="http://www.w3.org/2000/svg">
<g clip-path="url(#clip0_244_584)">
<path d="M52.2207 0.363281V373.125H160.457V0.363281H52.2207ZM130.021 342.687H82.6543V30.7969H130.021V342.687Z" fill="black"/>
<path d="M550.15 0.363281V373.125H658.387V0.363281H550.15ZM627.951 342.687H580.584V30.7969H627.951V342.687Z" fill="black"/>
<path d="M202.898 48.043H172.463V328.043H202.898V48.043Z" fill="black"/>
<path d="M249.566 48.043H219.131V328.043H249.566V48.043Z" fill="black"/>
<path d="M298.262 48.043H267.826V328.043H298.262V48.043Z" fill="black"/>
<path d="M342.9 48.043H312.465V328.043H342.9V48.043Z" fill="black"/>
<path d="M389.566 48.043H359.131V328.043H389.566V48.043Z" fill="black"/>
<path d="M438.262 48.043H407.826V328.043H438.262V48.043Z" fill="black"/>
<path d="M484.928 48.043H454.492V328.043H484.928V48.043Z" fill="black"/>
<path d="M529.566 48.043H499.131V328.043H529.566V48.043Z" fill="black"/>
<path d="M32.4648 155.582H2.0293V216.451H32.4648V155.582Z" fill="black"/>
<path d="M704.059 155.582H673.623V216.451H704.059V155.582Z" fill="black"/>
<path d="M938.815 859.639H790.992C749.535 859.639 719.262 886.016 718.285 920.508H718.262C718.262 942.826 702.451 969.203 682.07 969.203H82.998C57.4531 969.203 30.4355 941.107 30.4355 914.547V912.781C30.4355 887.488 57.5176 873.842 82.998 873.842H363.084C399.018 873.842 424.059 837.891 424.059 805.625V803.859C424.059 771.689 399.555 750.072 363.084 750.072H308.625C287.244 750.072 263.768 726.211 263.768 704.48V702.715C263.768 679.188 293.105 672.971 308.619 672.971H613.912C653.549 672.971 685.797 637.176 685.797 593.178V591.615C685.797 548.229 654.781 516.74 612.047 516.74H285.281C268.258 516.74 249.564 496.914 249.564 478.859V477.094C249.564 460.674 267.965 451.813 285.281 451.813H376.555C411.156 451.813 438.26 423.318 438.26 386.939V342.246H407.824V386.939C407.824 406.252 394.088 421.377 376.553 421.377H285.279C247.566 421.377 219.129 445.328 219.129 477.094V478.859C219.129 513.336 251.895 547.176 285.279 547.176H612.045C637.953 547.176 655.359 565.035 655.359 591.617V593.18C655.359 616.918 639.514 642.539 613.91 642.539H308.617C271.205 642.539 233.332 663.211 233.332 702.719V704.484C233.332 742.852 270.625 780.51 308.623 780.51H363.082C374.488 780.51 393.623 783.543 393.623 803.861V805.627C393.623 826.904 377.207 843.408 363.082 843.408H82.998C42.7637 843.408 0 867.721 0 912.783V914.549C0 934.937 9.19922 956.213 25.2402 972.916C41.5488 989.898 62.5996 999.641 82.998 999.641H682.07C720.719 999.641 747.834 959.061 748.676 922.539H748.695C748.695 906.307 761.93 890.076 790.992 890.076H938.815C956.426 890.076 969.566 902.85 969.566 919.785C969.566 936.443 955.654 949.494 937.393 949.494V979.93C971.885 979.93 1000 953.512 1000 919.787C1000 886.055 973.203 859.639 938.815 859.639Z" fill="black"/>
</g>
<defs>
<clipPath id="clip0_244_584">
<rect width="1000" height="1000" fill="white"/>
</clipPath>
</defs>
</svg>
