<svg width="1000" height="1000" viewBox="0 0 1000 1000" fill="none" xmlns="http://www.w3.org/2000/svg">
<g clip-path="url(#clip0_244_631)">
<path d="M645.335 221.499C656.212 196.31 658.788 176.236 652.994 161.823C648.902 151.648 641.936 147.658 639.677 146.592L554.737 106.295C553.133 100.035 550.379 89.0184 548.148 78.617C546.063 68.8653 538.924 62.8705 530.696 59.1876L523.318 30.8503C521.991 25.7572 511.557 22.2037 511.557 22.2037V11.5596C511.557 5.17409 506.383 0 499.998 0C493.612 0 488.438 5.17409 488.438 11.5596V22.2037C488.438 22.2037 478.009 25.7525 476.68 30.8388L469.265 59.2015C461.056 62.889 453.935 68.8792 451.85 78.6124C449.621 89.016 446.87 100.032 445.263 106.293L360.321 146.59C358.06 147.656 351.096 151.644 347.002 161.821C341.208 176.231 343.783 196.308 354.661 221.496C375.528 269.82 403.299 364.549 404.784 369.631C405.491 372.537 413.645 409.435 387.03 446.158C352.069 494.396 379.41 611.298 379.456 611.467C382.12 621.242 398.225 643.443 488.443 645.198V891.841C477.232 892.831 460.591 896.497 446.447 908.619C430.744 922.072 422.151 942.179 420.905 968.38C420.9 968.472 421.025 976.883 412.938 976.883C408.55 976.883 404.978 973.316 404.978 968.93C404.978 962.544 399.804 957.37 393.418 957.37C387.033 957.37 381.858 962.544 381.858 968.93C381.858 986.064 395.799 1000 412.938 1000C443.423 1000 443.996 969.529 443.998 969.478C444.925 949.988 450.756 935.467 461.331 926.314C470.088 918.733 480.737 916.01 488.445 915.081V988.443C488.445 994.828 493.619 1000 500.005 1000C506.39 1000 511.564 994.828 511.564 988.443V915.078C519.219 916.003 529.792 918.701 538.515 926.176C549.191 935.324 555.077 949.894 556.009 969.48C556.011 969.531 555.97 1000 587.07 1000C604.203 1000 618.144 986.064 618.144 968.93C618.144 962.544 612.97 957.37 606.585 957.37C600.199 957.37 595.025 962.544 595.025 968.93C595.025 973.316 591.455 976.883 587.07 976.883C579.637 976.883 579.107 968.47 579.103 968.377C577.857 942.179 569.261 922.072 553.556 908.616C539.414 896.502 522.773 892.833 511.564 891.843V645.196C601.785 643.443 617.883 621.237 620.546 611.462C620.592 611.296 620.634 611.127 620.673 610.956C623.383 598.883 646.195 491.682 612.979 446.158C586.142 409.386 594.579 372.261 595.219 369.649C596.632 364.796 624.435 269.899 645.335 221.499ZM496.794 45.323H503.198L505.336 53.5372C502.994 53.387 496.999 53.387 494.648 53.5372L496.794 45.323ZM594.299 459.786C616.826 490.662 605.251 572.944 598.472 604.261C595.903 607.095 578.492 622.201 500 622.201C421.51 622.201 404.099 607.095 401.528 604.261C394.747 572.944 383.174 490.662 405.708 459.786C439.645 413.275 427.651 365.672 427.126 363.668C427.098 363.573 397.802 263.076 375.889 212.332C362.69 181.768 367.397 169.628 370.451 167.379L460.048 124.874C463.116 123.417 465.388 120.689 466.262 117.409C466.454 116.69 470.983 99.6717 474.456 83.4605C475.101 80.4504 487.601 76.527 500 76.4762C512.399 76.5247 524.9 80.448 525.545 83.4605C529.022 99.6763 533.551 116.692 533.743 117.409C534.619 120.689 536.889 123.417 539.957 124.874L629.551 167.379C632.605 169.631 637.312 181.77 624.111 212.332C602.201 263.076 572.909 363.573 572.884 363.668C572.354 365.67 560.355 413.275 594.299 459.786Z" fill="black"/>
</g>
<defs>
<clipPath id="clip0_244_631">
<rect width="1000" height="1000" fill="white"/>
</clipPath>
</defs>
</svg>
