<svg width="1000" height="1000" viewBox="0 0 1000 1000" fill="none" xmlns="http://www.w3.org/2000/svg">
<g clip-path="url(#clip0_244_634)">
<path d="M677.533 334.177L605.958 298.734L360.718 793.979L432.293 829.423L677.533 334.177Z" fill="black"/>
<path d="M741.726 160.279L703.189 141.196C699.453 139.346 694.925 140.875 693.075 144.611L292.105 954.343C290.255 958.079 291.784 962.607 295.52 964.457L334.057 983.54C337.793 985.39 342.321 983.861 344.171 980.125L745.141 170.393C746.991 166.657 745.462 162.129 741.726 160.279Z" stroke="black" stroke-width="22.2222" stroke-miterlimit="10"/>
<path d="M604.184 313.284L654.165 336.535" stroke="black" stroke-width="22.2222" stroke-miterlimit="10"/>
<path d="M370.583 796.011L422.649 821.793" stroke="black" stroke-width="22.2222" stroke-miterlimit="10"/>
<path d="M559.501 58.2333L550.39 31.1401" stroke="black" stroke-width="22.2222" stroke-miterlimit="10" stroke-linecap="round"/>
<path d="M590.493 150.4L581.382 123.307" stroke="black" stroke-width="22.2222" stroke-miterlimit="10" stroke-linecap="round"/>
<path d="M537.905 101.71L510.813 110.82" stroke="black" stroke-width="22.2222" stroke-miterlimit="10" stroke-linecap="round"/>
<path d="M630.071 70.7187L602.978 79.8291" stroke="black" stroke-width="22.2222" stroke-miterlimit="10" stroke-linecap="round"/>
<path d="M791.484 294.429L782.374 267.335" stroke="black" stroke-width="22.2222" stroke-miterlimit="10" stroke-linecap="round"/>
<path d="M822.477 386.595L813.367 359.502" stroke="black" stroke-width="22.2222" stroke-miterlimit="10" stroke-linecap="round"/>
<path d="M769.889 337.906L742.795 347.016" stroke="black" stroke-width="22.2222" stroke-miterlimit="10" stroke-linecap="round"/>
<path d="M862.055 306.914L834.961 316.024" stroke="black" stroke-width="22.2222" stroke-miterlimit="10" stroke-linecap="round"/>
</g>
<defs>
<clipPath id="clip0_244_634">
<rect width="1000" height="1000" fill="white"/>
</clipPath>
</defs>
</svg>
