<svg width="1000" height="1000" viewBox="0 0 1000 1000" fill="none" xmlns="http://www.w3.org/2000/svg">
<path d="M501.054 267.827C495.314 239.3 482.109 217.877 455.92 203.999C388.917 168.519 261.675 245.261 307.819 324.709C352.859 402.239 535.041 441.851 505.281 315.001" stroke="black" stroke-width="32" stroke-linecap="round" stroke-linejoin="round"/>
<path d="M466.919 181.833C445.562 148.092 507.477 58.113 486.653 30.49C460.677 -3.93769 264.768 107.264 251.303 160.81C241.109 201.332 282.641 276.403 296.403 313.547" stroke="black" stroke-width="32" stroke-linecap="round" stroke-linejoin="round"/>
<path d="M460.293 234.583C237.851 233.511 421.414 447.297 297.971 447.297" stroke="black" stroke-width="32" stroke-linecap="round" stroke-linejoin="round"/>
<path d="M472.16 483.594C463.686 497.685 369.358 462.405 364.816 473.784C353.542 502.126 414.275 555.093 398.277 587.226C358.561 667.041 300.908 771.518 343.912 868.73C351.338 885.513 388.377 865.93 402.465 865.93C420.426 865.93 475.033 889.649 490.289 874.334C516.65 847.85 490.229 706.727 483.315 675.484C476.397 644.241 448.466 585.929 448.466 577.427C448.466 559.288 476.873 508.511 483.315 487.789" stroke="black" stroke-width="32" stroke-linecap="round" stroke-linejoin="round"/>
<path d="M780.548 515.232C768.31 488.132 745.022 466.025 719.078 451.019C566.432 362.737 477.147 544.274 565.381 661.792C682.099 817.266 814.868 635.301 766.575 502.665" stroke="black" stroke-width="32" stroke-linecap="round" stroke-linejoin="round"/>
<path d="M640.162 570.979C598.006 659.107 523.798 543.752 482.228 489.029" stroke="black" stroke-width="32" stroke-linecap="round" stroke-linejoin="round"/>
<path d="M368.159 475.87C336.625 552.762 296.001 632.248 236.547 556.186" stroke="black" stroke-width="32" stroke-linecap="round" stroke-linejoin="round"/>
<path d="M236.549 418.837C244.893 576.295 253.994 782.046 262.871 914.58" stroke="black" stroke-width="32" stroke-linecap="round" stroke-linejoin="round"/>
<path d="M254.098 397.424C212.716 298.19 228.718 316.834 219 410.062" stroke="black" stroke-width="32" stroke-linecap="round" stroke-linejoin="round"/>
<path d="M437.332 879.482C431.729 953.55 407.747 963.965 453.712 976" stroke="black" stroke-width="32" stroke-linecap="round" stroke-linejoin="round"/>
<path d="M390.098 901.417C384.389 927.866 372.2 952.208 368.163 975.997" stroke="black" stroke-width="32" stroke-linecap="round" stroke-linejoin="round"/>
</svg>
