<svg width="1000" height="1000" viewBox="0 0 1000 1000" fill="none" xmlns="http://www.w3.org/2000/svg">
<path d="M525.614 103.671C488.1 103.671 457.579 134.192 457.579 171.706C457.579 209.22 488.1 239.74 525.614 239.74C563.128 239.74 593.648 209.22 593.648 171.706C593.648 134.192 563.128 103.671 525.614 103.671ZM525.614 207.343C505.964 207.343 489.977 191.356 489.977 171.706C489.977 152.056 505.964 136.069 525.614 136.069C545.264 136.069 561.251 152.056 561.251 171.706C561.251 191.356 545.264 207.343 525.614 207.343Z" fill="black"/>
<path d="M768.017 901.711C781.935 894.149 788.953 877.488 783.853 861.909L767.73 812.644C764.948 804.145 759.024 797.238 751.048 793.197C743.071 789.153 733.996 788.458 725.499 791.242L724.473 791.577L634.11 515.467C640.698 513.413 645.482 507.266 645.482 500V465.443C645.482 437.456 622.713 414.687 594.726 414.687H583.536C589.94 404.315 593.646 392.108 593.646 379.05C593.646 365.765 589.804 353.367 583.195 342.883C598.922 340.145 610.927 326.432 610.927 309.935V291.577H663.842C691.83 291.577 714.598 268.808 714.598 240.821V102.592C714.598 74.6048 691.83 51.8359 663.842 51.8359H607.182C606.715 51.8359 606.302 51.5378 606.156 51.0972L600.691 34.7063C593.773 13.9482 574.423 0 552.542 0H498.685C476.804 0 457.452 13.9482 450.534 34.7063L445.069 51.0972C444.922 51.54 444.51 51.8359 444.046 51.8359H387.385C359.398 51.8359 336.629 74.6048 336.629 102.592V240.821C336.629 268.808 359.398 291.577 387.385 291.577H440.3V309.935C440.3 313.911 441.033 317.711 442.311 321.251L392.652 338.985C387.855 332.894 381.715 327.92 374.499 324.51C362.242 318.717 348.473 318.048 335.752 322.613L232.08 359.644C205.73 369.058 191.948 398.16 201.359 424.512C208.553 444.665 227.763 458.205 249.156 458.205C254.987 458.205 260.737 457.205 266.231 455.235L369.903 418.205C390.918 410.698 403.922 390.665 403.56 369.49L465.415 347.4C460.419 356.862 457.579 367.626 457.579 379.048C457.579 392.106 461.285 404.313 467.689 414.685H456.499C428.512 414.685 405.743 437.454 405.743 465.441V499.998C405.743 507.263 410.527 513.41 417.115 515.464L326.752 791.577L325.726 791.24C317.227 788.46 308.154 789.153 300.177 793.194C292.201 797.238 286.277 804.145 283.495 812.641L267.372 861.907C264.59 870.406 265.285 879.479 269.326 887.456C272.441 893.598 277.264 898.505 283.195 901.715C263.961 908.942 250.236 927.516 250.236 949.244V983.801C250.236 992.747 257.488 1000 266.434 1000H335.549C344.495 1000 351.747 992.747 351.747 983.801V949.244C351.747 936.428 346.963 924.715 339.1 915.773C341.864 915.171 344.577 914.244 347.166 912.931C355.143 908.888 361.067 901.983 363.849 893.484L374.227 861.771H474.858V897.408C474.858 906.259 478.335 914.296 483.963 920.287C478.231 928.505 474.858 938.486 474.858 949.244V983.801C474.858 992.747 482.11 1000 491.056 1000H560.171C569.117 1000 576.369 992.747 576.369 983.801V949.244C576.369 938.486 572.996 928.508 567.264 920.287C572.892 914.296 576.369 906.259 576.369 897.408V861.771H677L687.378 893.482C690.16 901.981 696.082 908.888 704.061 912.931C706.652 914.244 709.363 915.171 712.128 915.773C704.264 924.715 699.48 936.428 699.48 949.244V983.801C699.48 992.747 706.732 1000 715.678 1000H784.793C793.739 1000 800.992 992.747 800.992 983.801V949.244C800.992 927.512 787.259 908.933 768.017 901.711ZM673.21 818.67C671.482 822.08 670.404 825.693 669.909 829.374H572.166C566.449 819.082 555.475 812.095 542.89 812.095H541.812V516.199H600.264L693.685 801.652L692.659 801.987C684.16 804.769 677.255 810.693 673.21 818.67ZM508.335 898.488C507.739 898.488 507.255 898.004 507.255 897.408V845.572C507.255 844.976 507.739 844.492 508.335 844.492H542.892C543.488 844.492 543.972 844.976 543.972 845.572V897.408C543.972 898.004 543.488 898.488 542.892 898.488H508.335ZM438.141 171.706C438.141 123.473 477.38 84.2333 525.614 84.2333C573.847 84.2333 613.087 123.473 613.087 171.706C613.087 219.94 573.847 259.179 525.614 259.179C477.38 259.179 438.141 219.94 438.141 171.706ZM682.201 102.592V240.821C682.201 250.944 673.966 259.179 663.842 259.179H607.449C630.832 237.292 645.484 206.186 645.484 171.706C645.484 137.227 630.832 106.121 607.449 84.2333H663.842C673.966 84.2333 682.201 92.4687 682.201 102.592ZM481.268 44.9503C483.771 37.4406 490.769 32.3974 498.685 32.3974H552.542C560.458 32.3974 567.456 37.4406 569.957 44.9503L575.421 61.3434C575.609 61.9071 575.832 62.4514 576.048 63C560.706 55.8531 543.624 51.8359 525.614 51.8359C507.603 51.8359 490.521 55.8531 475.177 63.0022C475.393 62.4536 475.616 61.9071 475.804 61.3434L481.268 44.9503ZM369.026 240.821V102.592C369.026 92.4687 377.262 84.2333 387.385 84.2333H443.778C420.395 106.121 405.743 137.227 405.743 171.706C405.743 206.186 420.395 237.292 443.778 259.179H387.385C377.262 259.179 369.026 250.944 369.026 240.821ZM578.529 291.577V309.935C578.529 310.531 578.046 311.015 577.449 311.015H473.778C473.182 311.015 472.698 310.531 472.698 309.935V291.577H578.529ZM359.004 387.695L255.32 424.73C253.326 425.445 251.253 425.806 249.156 425.806C241.419 425.806 234.473 420.907 231.871 413.616C228.467 404.082 233.449 393.555 242.981 390.151L346.676 353.114C348.687 352.393 350.769 352.035 352.847 352.035C355.512 352.035 358.171 352.626 360.659 353.801C365.104 355.903 368.462 359.607 370.115 364.233C373.519 373.767 368.534 384.292 359.004 387.695ZM489.976 379.05C489.976 359.4 505.963 343.413 525.614 343.413C545.264 343.413 561.251 359.4 561.251 379.05C561.251 398.7 545.264 414.687 525.614 414.687C505.963 414.687 489.976 398.7 489.976 379.05ZM438.141 465.443C438.141 455.32 446.376 447.084 456.499 447.084H594.728C604.851 447.084 613.087 455.32 613.087 465.443V483.801H611.849C611.81 483.801 611.771 483.801 611.732 483.801H439.499C439.458 483.801 439.417 483.801 439.376 483.801H438.141V465.443ZM450.963 516.199H509.415V812.095H508.335C495.75 812.095 484.776 819.082 479.058 829.374H381.316C380.821 825.693 379.743 822.08 378.015 818.67C373.972 810.693 367.065 804.769 358.566 801.987L357.54 801.652L450.963 516.199ZM319.35 967.603H282.633V949.244C282.633 939.121 290.868 930.886 300.992 930.886C311.115 930.886 319.35 939.121 319.35 949.244V967.603ZM349.182 834.143L333.058 883.406C333.024 883.512 332.92 883.832 332.519 884.035C332.119 884.238 331.799 884.132 331.696 884.097L298.853 873.348C298.747 873.313 298.428 873.209 298.227 872.81C298.024 872.41 298.13 872.091 298.164 871.985L314.287 822.719C314.322 822.613 314.426 822.294 314.825 822.093C315.007 822 315.175 821.972 315.311 821.972C315.473 821.972 315.592 822.011 315.65 822.03L332.069 827.404L332.071 827.406H332.074L348.495 832.78C348.601 832.814 348.92 832.918 349.121 833.317C349.32 833.715 349.216 834.035 349.182 834.143ZM543.972 967.603H507.255V949.244C507.255 939.121 515.49 930.886 525.614 930.886C535.737 930.886 543.972 939.121 543.972 949.244V967.603ZM702.045 834.143C701.862 833.577 702.171 832.965 702.737 832.78L735.579 822.03C735.691 821.994 735.804 821.976 735.914 821.976C736.367 821.976 736.793 822.266 736.942 822.719L753.065 871.985C753.249 872.551 752.94 873.162 752.376 873.348L719.531 884.097C719.428 884.132 719.106 884.238 718.709 884.035C718.309 883.834 718.205 883.514 718.171 883.406L702.045 834.143ZM768.594 967.603H731.877V949.244C731.877 939.121 740.112 930.886 750.236 930.886C760.359 930.886 768.594 939.121 768.594 949.244V967.603Z" fill="black"/>
</svg>
