<svg width="1000" height="1000" viewBox="0 0 1000 1000" fill="none" xmlns="http://www.w3.org/2000/svg">
<g clip-path="url(#clip0_244_581)">
<path d="M260 -1.875C126.641 -1.875 18.125 106.641 18.125 240C18.125 373.359 126.641 481.875 260 481.875C310.938 481.875 358.438 465.703 397.5 438.75L560.625 636.875C560.234 638.281 560.078 639.766 560 641.25V863.125C541.328 866.641 502.266 874.609 454.375 888.75C423.672 897.812 392.813 908.594 368.125 921.875C355.781 928.516 345 936.016 336.25 945C327.5 953.984 320 965.859 320 980C320 991.016 328.984 1000 340 1000H820C831.016 1000 840 991.016 840 980C840 965.859 832.5 953.984 823.75 945C815 936.016 804.219 928.516 791.875 921.875C767.188 908.594 736.328 897.812 705.625 888.75C657.734 874.609 618.672 866.641 600 863.125V641.25C599.922 640 599.688 638.75 599.375 637.5L915.625 252.5C920.469 246.484 921.406 238.281 918.047 231.328C914.688 224.375 907.656 220 900 220H501.25C491.016 95.8594 386.641 -1.875 260 -1.875ZM260 41.875C362.813 41.875 446.719 120 456.875 220H369.375C377.578 213.125 381.328 205.391 376.25 195.625C358.906 162.266 297.734 209.922 276.25 228.125L275.625 227.5C273.75 225.156 271.406 223.203 268.75 221.875C273.594 191.875 282.813 116.797 246.875 120.625C210.469 124.531 235.469 197.578 246.25 225C244.063 227.109 242.344 229.688 241.25 232.5C218.047 220.078 145.156 184.141 135.625 221.25C125 262.656 231.953 253.594 244.375 252.5L246.25 255C238.828 262.031 163.672 334.531 196.875 357.5C227.109 378.359 252.266 293.906 258.75 270L370 405C338.516 426.094 300.859 438.125 260 438.125C150.391 438.125 61.875 349.609 61.875 240C61.875 130.391 150.391 41.875 260 41.875ZM302.5 260H857.5L808.125 320H351.875L302.5 260ZM385 360H775L580 597.5L385 360ZM580 900.625C582.969 901.172 637.344 910.703 694.375 927.5C723.672 936.094 752.813 946.562 773.125 957.5C774.766 958.438 775.313 959.062 776.875 960H383.125C384.688 959.062 385.234 958.438 386.875 957.5C407.188 946.562 436.328 936.094 465.625 927.5C522.656 910.703 577.031 901.172 580 900.625Z" fill="black"/>
</g>
<defs>
<clipPath id="clip0_244_581">
<rect width="1000" height="1000" fill="white"/>
</clipPath>
</defs>
</svg>
