<svg width="95" height="57" viewBox="0 0 95 57" fill="none" xmlns="http://www.w3.org/2000/svg">
<path d="M94.1037 48.2307C94.1037 50.5565 93.0021 52.7869 91.0412 54.4315C89.0803 56.076 86.4208 56.9999 83.6477 56.9999H62.7358V0H83.6477C86.4208 0 89.0803 0.923897 91.0412 2.56844C93.0021 4.21299 94.1037 6.44348 94.1037 8.76922V48.2307Z" fill="#ED2939"/>
<path d="M10.456 0C7.68288 0 5.02336 0.923897 3.06249 2.56844C1.10161 4.21299 0 6.44348 0 8.76922V48.2307C0 50.5565 1.10161 52.7869 3.06249 54.4315C5.02336 56.076 7.68288 56.9999 10.456 56.9999H31.368V0H10.456Z" fill="#002495"/>
<path d="M31.368 0H62.7358V56.9999H31.368V0Z" fill="#EEEEEE"/>
</svg>
