<svg width="100" height="100" viewBox="0 0 100 100" fill="none" xmlns="http://www.w3.org/2000/svg">
<g clip-path="url(#clip0_254_2)">
<g filter="url(#filter0_d_254_2)">
<path d="M25.712 62.736H20.336V53.84H11.504V48.656H20.336V39.696H25.712V48.656H34.544V53.84H25.712V62.736ZM57.838 66H42.35V60.944H47.406V29.584H43.054V24.4H52.782V60.944H57.838V66ZM71.7285 34.128C71.7285 34.896 71.8778 35.6 72.1765 36.24C72.5178 36.88 72.9445 37.4133 73.4565 37.84C73.8832 38.1387 74.3525 38.3947 74.8645 38.608C75.3765 38.7787 75.9312 38.864 76.5285 38.864C77.1685 38.864 77.7658 38.7787 78.3205 38.608C78.8752 38.3947 79.3445 38.096 79.7285 37.712C80.2405 37.2853 80.6245 36.7733 80.8805 36.176C81.1792 35.536 81.3285 34.8533 81.3285 34.128C81.3285 33.4453 81.2005 32.784 80.9445 32.144C80.6885 31.504 80.3258 30.9493 79.8565 30.48C79.4298 30.0533 78.9392 29.712 78.3845 29.456C77.8298 29.2 77.2325 29.072 76.5925 29.072C75.9098 29.072 75.2698 29.2213 74.6725 29.52C74.0752 29.776 73.5632 30.1173 73.1365 30.544C72.7098 31.0133 72.3685 31.568 72.1125 32.208C71.8565 32.8053 71.7285 33.4453 71.7285 34.128ZM70.4485 58.704C71.2165 59.5147 72.1125 60.1547 73.1365 60.624C74.1605 61.0933 75.2485 61.328 76.4005 61.328C77.5952 61.328 78.7045 61.0933 79.7285 60.624C80.7952 60.1547 81.7338 59.5147 82.5445 58.704C83.3125 57.936 83.9312 57.04 84.4005 56.016C84.8698 54.9493 85.1045 53.8187 85.1045 52.624C85.1045 51.472 84.8698 50.384 84.4005 49.36C83.9738 48.336 83.3978 47.44 82.6725 46.672C81.9045 45.904 81.0085 45.2853 79.9845 44.816C78.9605 44.3467 77.8725 44.0907 76.7205 44.048C75.4832 44.048 74.3312 44.2827 73.2645 44.752C72.1978 45.1787 71.2805 45.776 70.5125 46.544C69.7445 47.312 69.1258 48.2293 68.6565 49.296C68.2298 50.32 68.0165 51.4293 68.0165 52.624C68.0165 53.8187 68.2298 54.9493 68.6565 56.016C69.0832 57.04 69.6805 57.936 70.4485 58.704ZM86.2565 62.416C84.9765 63.696 83.4832 64.6987 81.7765 65.424C80.1125 66.1493 78.3205 66.512 76.4005 66.512C74.4805 66.512 72.6672 66.1493 70.9605 65.424C69.2965 64.6987 67.8458 63.696 66.6085 62.416C65.3285 61.1787 64.3258 59.728 63.6005 58.064C62.8752 56.3573 62.5125 54.544 62.5125 52.624C62.5125 51.1307 62.7258 49.7013 63.1525 48.336C63.6218 46.9707 64.2618 45.7333 65.0725 44.624C65.6272 43.8987 66.2245 43.2373 66.8645 42.64C67.5472 42 68.2725 41.4453 69.0405 40.976C68.1872 40.1227 67.5045 39.12 66.9925 37.968C66.5232 36.7733 66.2885 35.4933 66.2885 34.128C66.2885 32.72 66.5445 31.3973 67.0565 30.16C67.6112 28.9227 68.3578 27.8347 69.2965 26.896C70.1925 25.9573 71.2378 25.232 72.4325 24.72C73.6698 24.1653 74.9925 23.888 76.4005 23.888C77.8085 23.888 79.1312 24.1653 80.3685 24.72C81.6058 25.232 82.6938 25.9573 83.6325 26.896C84.5712 27.8347 85.2965 28.9227 85.8085 30.16C86.3632 31.3973 86.6405 32.72 86.6405 34.128C86.6405 35.4933 86.3845 36.7733 85.8725 37.968C85.3605 39.12 84.6778 40.1227 83.8245 40.976C84.5498 41.4453 85.2325 41.9573 85.8725 42.512C86.5125 43.0667 87.0885 43.6853 87.6005 44.368C88.4538 45.52 89.1365 46.8 89.6485 48.208C90.1605 49.5733 90.4165 51.0453 90.4165 52.624C90.4165 54.544 90.0325 56.3573 89.2645 58.064C88.5392 59.728 87.5365 61.1787 86.2565 62.416Z" fill="black"/>
</g>
</g>
<defs>
<filter id="filter0_d_254_2" x="1.50391" y="13.8877" width="98.9126" height="62.624" filterUnits="userSpaceOnUse" color-interpolation-filters="sRGB">
<feFlood flood-opacity="0" result="BackgroundImageFix"/>
<feColorMatrix in="SourceAlpha" type="matrix" values="0 0 0 0 0 0 0 0 0 0 0 0 0 0 0 0 0 0 127 0" result="hardAlpha"/>
<feOffset/>
<feGaussianBlur stdDeviation="5"/>
<feComposite in2="hardAlpha" operator="out"/>
<feColorMatrix type="matrix" values="0 0 0 0 0 0 0 0 0 0 0 0 0 0 0 0 0 0 0.7 0"/>
<feBlend mode="normal" in2="BackgroundImageFix" result="effect1_dropShadow_254_2"/>
<feBlend mode="normal" in="SourceGraphic" in2="effect1_dropShadow_254_2" result="shape"/>
</filter>
<clipPath id="clip0_254_2">
<rect width="100" height="100" fill="white"/>
</clipPath>
</defs>
</svg>
