<svg width="95" height="57" viewBox="0 0 95 57" fill="none" xmlns="http://www.w3.org/2000/svg">
<path d="M87.0561 0H7.04767C3.15523 0 0 2.91704 0 6.51564V50.4844C0 54.0828 3.15523 57 7.04767 57H87.0561C90.9484 57 94.1038 54.083 94.1038 50.4844V6.51564C94.1038 2.91704 90.9485 0 87.0561 0Z" fill="#002495"/>
<path d="M94.0062 5.43868C93.4507 2.35307 90.5514 0 87.0561 0H85.2224L55.1643 18.2066V0.000169828H38.9395V18.2067L8.88141 0.000169828L7.04767 0C3.55242 0 0.653029 2.35307 0.0975959 5.43885L25.7883 21.0003H0V36.0003H25.7883L0.0975959 51.5613C0.653029 54.6469 3.55242 57 7.04767 57H8.88141L38.9395 38.7934V57H55.1643V38.7934L85.2224 57H87.0561C90.5514 57 93.4507 54.6471 94.0062 51.5613L68.3155 35.9999H94.1038V20.9999H68.3155L94.0062 5.43868Z" fill="#EEEEEE"/>
<path d="M51.9194 0H42.1844V23.9999H0V32.9999H42.1844V56.9998H51.9194V32.9999H94.1038V23.9999H51.9194V0Z" fill="#ED2939"/>
<path d="M4.5573 56.5798L38.8506 35.9999H32.8904L1.69577 54.7205C2.45908 55.5441 3.44 56.1895 4.5573 56.5798Z" fill="#ED2939"/>
<path d="M63.665 35.9999H57.7048L90.9198 55.9326C91.8493 55.3683 92.6249 54.606 93.1781 53.7109L63.665 35.9999Z" fill="#ED2939"/>
<path d="M0.744233 3.60259L29.7344 21.0003H35.6946L2.84429 1.28605C1.96225 1.89301 1.24048 2.68654 0.744233 3.60259Z" fill="#ED2939"/>
<path d="M61.1249 21.0001L92.3768 2.24497C91.605 1.42408 90.6164 0.782459 89.4913 0.399626L55.1648 21.0001H61.1249Z" fill="#ED2939"/>
</svg>
